<svg width="32" height="32" viewBox="0 0 32 32" fill="none" xmlns="http://www.w3.org/2000/svg">
<path d="M19.7686 17.1046C18.7684 18.1048 17.4119 18.6667 15.9974 18.6667C14.5829 18.6667 13.2264 18.1048 12.2262 17.1046C11.226 16.1044 10.6641 14.7478 10.6641 13.3333C10.6641 11.9188 11.226 10.5623 12.2262 9.5621C13.2264 8.5619 14.5829 8 15.9974 8C17.4119 8 18.7684 8.5619 19.7686 9.5621C20.7688 10.5623 21.3307 11.9188 21.3307 13.3333C21.3307 14.7478 20.7688 16.1044 19.7686 17.1046Z" fill="#0098FF" stroke="#0098FF" stroke-width="1.5" stroke-linecap="round" stroke-linejoin="round"/>
<mask id="mask0_845_2267" style="mask-type:alpha" maskUnits="userSpaceOnUse" x="1" y="1" width="30" height="30">
<path d="M15.9987 1.33337C7.8983 1.33337 1.33203 7.89964 1.33203 16C1.33203 24.1004 7.8983 30.6667 15.9987 30.6667C24.0991 30.6667 30.6654 24.1004 30.6654 16C30.6654 7.89964 24.0991 1.33337 15.9987 1.33337Z" fill="#667085"/>
</mask>
<g mask="url(#mask0_845_2267)">
<path d="M21.3333 22.7078H10.6667L8 26.0001V32.6667H24V26.0001L21.3333 22.7078Z" fill="#0098FF" stroke="#0098FF" stroke-width="1.5" stroke-linecap="square" stroke-linejoin="bevel"/>
</g>
<path d="M15.9987 1.33337C7.8983 1.33337 1.33203 7.89964 1.33203 16C1.33203 24.1004 7.8983 30.6667 15.9987 30.6667C24.0991 30.6667 30.6654 24.1004 30.6654 16C30.6654 7.89964 24.0991 1.33337 15.9987 1.33337Z" stroke="#E4E7EC" stroke-width="1.5" stroke-linecap="round" stroke-linejoin="round"/>
</svg>
