<svg width="48" height="48" viewBox="0 0 48 48" fill="none" xmlns="http://www.w3.org/2000/svg">
<rect width="48" height="48" rx="24" fill="#F8F9FA"/>
<path d="M23.9991 28.4446C25.1779 28.4446 26.3083 27.9763 27.1418 27.1428C27.9753 26.3093 28.4436 25.1788 28.4436 24.0001C28.4436 22.8214 27.9753 21.6909 27.1418 20.8574C26.3083 20.0239 25.1779 19.5557 23.9991 19.5557C22.8204 19.5557 21.6899 20.0239 20.8564 20.8574C20.0229 21.6909 19.5547 22.8214 19.5547 24.0001C19.5547 25.1788 20.0229 26.3093 20.8564 27.1428C21.6899 27.9763 22.8204 28.4446 23.9991 28.4446Z" stroke="#98A2B3" stroke-width="1.5" stroke-linecap="round" stroke-linejoin="round"/>
<path d="M14 28.4444V19.5556C14 18.0821 14.5853 16.6691 15.6272 15.6272C16.6691 14.5853 18.0821 14 19.5556 14H28.4444C29.9179 14 31.3309 14.5853 32.3728 15.6272C33.4147 16.6691 34 18.0821 34 19.5556V28.4444C34 29.9179 33.4147 31.3309 32.3728 32.3728C31.3309 33.4147 29.9179 34 28.4444 34H19.5556C18.0821 34 16.6691 33.4147 15.6272 32.3728C14.5853 31.3309 14 29.9179 14 28.4444Z" stroke="#98A2B3" stroke-width="1.5"/>
<path d="M30.1094 17.8987L30.1194 17.8877" stroke="#98A2B3" stroke-width="1.5" stroke-linecap="round" stroke-linejoin="round"/>
</svg>
