<svg width="24" height="25" viewBox="0 0 24 25" fill="none" xmlns="http://www.w3.org/2000/svg">
<g clip-path="url(#clip0_826_834)">
<path d="M17.749 22.1239C16.6906 22.1239 15.7939 21.7509 15.021 20.9779C14.248 20.205 13.875 19.3083 13.875 18.2499C13.875 17.1916 14.248 16.2949 15.021 15.5219C15.7939 14.749 16.6906 14.376 17.749 14.376C18.8073 14.376 19.704 14.749 20.477 15.5219C21.2499 16.2949 21.6229 17.1916 21.6229 18.2499C21.6229 19.3083 21.2499 20.205 20.477 20.9779C19.704 21.7509 18.8073 22.1239 17.749 22.1239Z" stroke="#0098FF" stroke-width="1.5"/>
<path d="M2.41797 21.1243V6.74935H8.16797V2.91602H15.8346V6.74935H21.5846V13.5775C21.361 13.4018 21.1294 13.2421 20.8898 13.0983C20.6503 12.9546 20.4027 12.8188 20.1471 12.691V8.18685H3.85547V19.6868H11.8576C11.9214 19.9424 12.0013 20.19 12.0971 20.4296C12.193 20.6691 12.3048 20.9007 12.4326 21.1243H2.41797ZM9.60547 6.74935H14.3971V4.35352H9.60547V6.74935Z" fill="#0098FF"/>
<path d="M17.75 15.9229V18.2837L19.2418 19.7755" stroke="#0098FF" stroke-width="1.5"/>
</g>
<defs>
<clipPath id="clip0_826_834">
<rect width="24" height="24" fill="white" transform="translate(0 0.5)"/>
</clipPath>
</defs>
</svg>
