<svg width="25" height="24" viewBox="0 0 25 24" fill="none" xmlns="http://www.w3.org/2000/svg">
<path d="M15.2464 12.8284C14.4963 13.5786 13.4788 14 12.418 14C11.3571 14 10.3397 13.5786 9.58954 12.8284C8.8394 12.0783 8.41797 11.0609 8.41797 10C8.41797 8.93913 8.8394 7.92172 9.58954 7.17157C10.3397 6.42143 11.3571 6 12.418 6C13.4788 6 14.4963 6.42143 15.2464 7.17157C15.9965 7.92172 16.418 8.93913 16.418 10C16.418 11.0609 15.9965 12.0783 15.2464 12.8284Z" fill="#98A2B3" stroke="#98A2B3" stroke-width="1.5" stroke-linecap="round" stroke-linejoin="round"/>
<mask id="mask0_257_775" style="mask-type:alpha" maskUnits="userSpaceOnUse" x="1" y="1" width="23" height="22">
<path d="M12.418 1C6.34267 1 1.41797 5.9247 1.41797 12C1.41797 18.0753 6.34267 23 12.418 23C18.4933 23 23.418 18.0753 23.418 12C23.418 5.9247 18.4933 1 12.418 1Z" fill="#667085"/>
</mask>
<g mask="url(#mask0_257_775)">
<path d="M16.418 17.0312H8.41797L6.41797 19.5005V24.5005H18.418V19.5005L16.418 17.0312Z" fill="#98A2B3" stroke="#98A2B3" stroke-width="1.5" stroke-linecap="square" stroke-linejoin="bevel"/>
</g>
<path d="M12.418 1C6.34267 1 1.41797 5.9247 1.41797 12C1.41797 18.0753 6.34267 23 12.418 23C18.4933 23 23.418 18.0753 23.418 12C23.418 5.9247 18.4933 1 12.418 1Z" stroke="#E4E7EC" stroke-width="1.5" stroke-linecap="round" stroke-linejoin="round"/>
</svg>
