<svg width="24" height="24" viewBox="0 0 24 24" fill="none" xmlns="http://www.w3.org/2000/svg">
<g clip-path="url(#clip0_335_5095)">
<path d="M14.8737 19.6673C12.7334 19.6673 10.9206 18.9246 9.43516 17.4392C7.94974 15.9538 7.20703 14.1409 7.20703 12.0007C7.20703 9.86036 7.94974 8.04753 9.43516 6.56211C10.9206 5.07669 12.7334 4.33398 14.8737 4.33398C17.014 4.33398 18.8268 5.07669 20.3122 6.56211C21.7977 8.04753 22.5404 9.86036 22.5404 12.0007C22.5404 14.1409 21.7977 15.9538 20.3122 17.4392C18.8268 18.9246 17.014 19.6673 14.8737 19.6673ZM14.8679 18.2298C16.5968 18.2298 18.0682 17.6248 19.282 16.4147C20.4959 15.2045 21.1029 13.7351 21.1029 12.0064C21.1029 10.2776 20.4978 8.80619 19.2878 7.59232C18.0775 6.37844 16.6081 5.77148 14.8794 5.77148C13.1506 5.77148 11.6792 6.37653 10.4654 7.58657C9.25149 8.7968 8.64453 10.2662 8.64453 11.9949C8.64453 13.7237 9.24958 15.1951 10.4596 16.409C11.6698 17.6229 13.1393 18.2298 14.8679 18.2298ZM17.3174 15.4267L18.3237 14.4204L15.5924 11.6892V8.16732H14.1549V12.2882L17.3174 15.4267ZM2.41536 8.88607V7.44857H6.2487V8.88607H2.41536ZM1.45703 12.7194V11.2819H6.2487V12.7194H1.45703ZM2.41536 16.5527V15.1152H6.2487V16.5527H2.41536Z" fill="#98A2B3"/>
</g>
<defs>
<clipPath id="clip0_335_5095">
<rect width="24" height="24" fill="white"/>
</clipPath>
</defs>
</svg>
