<svg width="24" height="24" viewBox="0 0 24 24" fill="none" xmlns="http://www.w3.org/2000/svg">
<path d="M11.2812 8.28613V7.6153C10.5945 7.43959 10.0234 7.07231 9.56823 6.51346C9.11302 5.9546 8.88542 5.30763 8.88542 4.57259C8.88542 3.71233 9.18969 2.97816 9.79823 2.3701C10.4068 1.76204 11.1415 1.45801 12.0024 1.45801C12.8633 1.45801 13.5972 1.76204 14.2042 2.3701C14.8111 2.97816 15.1146 3.71233 15.1146 4.57259C15.1146 5.30763 14.887 5.9546 14.4318 6.51346C13.9766 7.07231 13.4055 7.43959 12.7188 7.6153V8.28613L20.625 12.8382V16.9111L12.7188 21.4632C12.4899 21.591 12.249 21.6549 11.9962 21.6549C11.7432 21.6549 11.5049 21.591 11.2812 21.4632L3.375 16.9111V12.8382L11.2812 8.28613ZM4.8125 14.0841V16.0726L12 20.2174L19.1875 16.0726V14.0601L12 18.2288L4.8125 14.0841ZM11.9971 6.24967C12.4623 6.24967 12.8585 6.0869 13.1859 5.7614C13.5134 5.43591 13.6771 5.04058 13.6771 4.57547C13.6771 4.11035 13.5143 3.71408 13.1888 3.38665C12.8633 3.05922 12.468 2.89551 12.0029 2.89551C11.5377 2.89551 11.1415 3.05827 10.8141 3.38378C10.4866 3.70929 10.3229 4.1046 10.3229 4.56972C10.3229 5.03483 10.4857 5.43111 10.8112 5.75853C11.1367 6.08594 11.532 6.24967 11.9971 6.24967ZM5.89062 13.0538L12 16.5757L18.0854 13.0299L12.7188 9.93926V13.4372H11.2812V9.93926L5.89062 13.0538Z" fill="#98A2B3"/>
</svg>
