<svg width="24" height="24" viewBox="0 0 24 24" fill="none" xmlns="http://www.w3.org/2000/svg">
<g clip-path="url(#clip0_335_5066)">
<path d="M17.749 21.6239C16.6906 21.6239 15.7939 21.2509 15.021 20.4779C14.248 19.705 13.875 18.8083 13.875 17.7499C13.875 16.6916 14.248 15.7949 15.021 15.0219C15.7939 14.249 16.6906 13.876 17.749 13.876C18.8073 13.876 19.704 14.249 20.477 15.0219C21.2499 15.7949 21.6229 16.6916 21.6229 17.7499C21.6229 18.8083 21.2499 19.705 20.477 20.4779C19.704 21.2509 18.8073 21.6239 17.749 21.6239Z" stroke="#98A2B3" stroke-width="1.5"/>
<path d="M2.41797 20.6243V6.24935H8.16797V2.41602H15.8346V6.24935H21.5846V13.0775C21.361 12.9018 21.1294 12.7421 20.8898 12.5983C20.6503 12.4546 20.4027 12.3188 20.1471 12.191V7.68685H3.85547V19.1868H11.8576C11.9214 19.4424 12.0013 19.69 12.0971 19.9296C12.193 20.1691 12.3048 20.4007 12.4326 20.6243H2.41797ZM9.60547 6.24935H14.3971V3.85352H9.60547V6.24935Z" fill="#98A2B3"/>
<path d="M17.75 15.4229V17.7837L19.2418 19.2755" stroke="#98A2B3" stroke-width="1.5"/>
</g>
<defs>
<clipPath id="clip0_335_5066">
<rect width="24" height="24" fill="white"/>
</clipPath>
</defs>
</svg>
