<svg width="24" height="24" viewBox="0 0 24 24" fill="none" xmlns="http://www.w3.org/2000/svg">
<path d="M11.9991 16.4446C13.1779 16.4446 14.3083 15.9763 15.1418 15.1428C15.9753 14.3093 16.4436 13.1788 16.4436 12.0001C16.4436 10.8214 15.9753 9.69091 15.1418 8.85741C14.3083 8.02392 13.1779 7.55566 11.9991 7.55566C10.8204 7.55566 9.68993 8.02392 8.85643 8.85741C8.02294 9.69091 7.55469 10.8214 7.55469 12.0001C7.55469 13.1788 8.02294 14.3093 8.85643 15.1428C9.68993 15.9763 10.8204 16.4446 11.9991 16.4446Z" stroke="#98A2B3" stroke-width="1.5" stroke-linecap="round" stroke-linejoin="round"/>
<path d="M2 16.4444V7.55556C2 6.08213 2.58532 4.66905 3.62718 3.62718C4.66905 2.58532 6.08213 2 7.55556 2H16.4444C17.9179 2 19.3309 2.58532 20.3728 3.62718C21.4147 4.66905 22 6.08213 22 7.55556V16.4444C22 17.9179 21.4147 19.3309 20.3728 20.3728C19.3309 21.4147 17.9179 22 16.4444 22H7.55556C6.08213 22 4.66905 21.4147 3.62718 20.3728C2.58532 19.3309 2 17.9179 2 16.4444Z" stroke="#98A2B3" stroke-width="1.5"/>
<path d="M18.1094 5.8987L18.1194 5.8877" stroke="#98A2B3" stroke-width="1.5" stroke-linecap="round" stroke-linejoin="round"/>
</svg>
