<svg width="16" height="16" viewBox="0 0 16 16" fill="none" xmlns="http://www.w3.org/2000/svg">
<path fill-rule="evenodd" clip-rule="evenodd" d="M3.10156 6.75C3.10156 4.40279 5.00435 2.5 7.35156 2.5C9.69877 2.5 11.6016 4.40279 11.6016 6.75C11.6016 9.09721 9.69877 11 7.35156 11C5.00435 11 3.10156 9.09721 3.10156 6.75ZM7.35156 1C4.17593 1 1.60156 3.57436 1.60156 6.75C1.60156 9.92564 4.17593 12.5 7.35156 12.5C8.4105 12.5 9.40259 12.2137 10.2547 11.7144L13.8221 15.2801L14.8825 14.2192L11.4474 10.7857C12.4703 9.74764 13.1016 8.32254 13.1016 6.75C13.1016 3.57436 10.5272 1 7.35156 1Z" fill="#98A2B3"/>
</svg>
