<svg width="24" height="24" viewBox="0 0 24 24" fill="none" xmlns="http://www.w3.org/2000/svg">
<path d="M12.0013 21.5827C10.6596 21.5827 9.4058 21.3311 8.23984 20.828C7.07389 20.3249 6.05964 19.6421 5.19714 18.7796C4.33464 17.9171 3.65581 16.8988 3.16068 15.7249C2.66554 14.5509 2.41797 13.2931 2.41797 11.9514C2.41797 10.6098 2.66554 9.35996 3.16068 8.20195C3.65581 7.04395 4.33464 6.03372 5.19714 5.17122C6.05964 4.30872 7.07389 3.6339 8.23984 3.14674C9.4058 2.65959 10.6596 2.41602 12.0013 2.41602C13.343 2.41602 14.5968 2.65959 15.7628 3.14674C16.9287 3.6339 17.943 4.30872 18.8055 5.17122C19.668 6.03372 20.3468 7.04395 20.8419 8.20195C21.3371 9.35996 21.5846 10.6098 21.5846 11.9514C21.5846 13.2931 21.3371 14.5509 20.8419 15.7249C20.3468 16.8988 19.668 17.9171 18.8055 18.7796C17.943 19.6421 16.9287 20.3249 15.7628 20.828C14.5968 21.3311 13.343 21.5827 12.0013 21.5827ZM12.0013 20.1931C12.5603 19.6181 13.0275 18.9592 13.4029 18.2165C13.7782 17.4738 14.0857 16.5913 14.3253 15.5691H9.7013C9.92493 16.5275 10.2244 17.39 10.5997 18.1566C10.9751 18.9233 11.4423 19.6021 12.0013 20.1931ZM9.96484 19.9056C9.56555 19.2986 9.22214 18.6438 8.93464 17.941C8.64714 17.2382 8.40755 16.4476 8.21589 15.5691H4.62214C5.22908 16.7032 5.93184 17.5936 6.73047 18.2405C7.5291 18.8874 8.60722 19.4424 9.96484 19.9056ZM14.0617 19.8816C15.2117 19.5143 16.2459 18.9632 17.1643 18.2285C18.0827 17.4938 18.8214 16.6074 19.3805 15.5691H15.8107C15.6031 16.4316 15.3594 17.2143 15.0799 17.9171C14.8004 18.6199 14.461 19.2747 14.0617 19.8816ZM4.14297 14.1316H7.95234C7.90443 13.7004 7.87649 13.3131 7.86849 12.9697C7.86049 12.6262 7.85651 12.2868 7.85651 11.9514C7.85651 11.5521 7.86451 11.1967 7.88047 10.8853C7.89643 10.5738 7.92839 10.2264 7.9763 9.8431H4.14297C4.03116 10.2264 3.95529 10.5699 3.91536 10.8733C3.87544 11.1768 3.85547 11.5361 3.85547 11.9514C3.85547 12.3667 3.87544 12.7381 3.91536 13.0655C3.95529 13.3929 4.03116 13.7483 4.14297 14.1316ZM9.43776 14.1316H14.5888C14.6527 13.6365 14.6926 13.2332 14.7086 12.9217C14.7245 12.6103 14.7326 12.2868 14.7326 11.9514C14.7326 11.632 14.7245 11.3245 14.7086 11.029C14.6926 10.7335 14.6527 10.3382 14.5888 9.8431H9.43776C9.37389 10.3382 9.33393 10.7335 9.31797 11.029C9.30201 11.3245 9.29401 11.632 9.29401 11.9514C9.29401 12.2868 9.30201 12.6103 9.31797 12.9217C9.33393 13.2332 9.37389 13.6365 9.43776 14.1316ZM16.0263 14.1316H19.8596C19.9714 13.7483 20.0473 13.3929 20.0872 13.0655C20.1272 12.7381 20.1471 12.3667 20.1471 11.9514C20.1471 11.5361 20.1272 11.1768 20.0872 10.8733C20.0473 10.5699 19.9714 10.2264 19.8596 9.8431H16.0503C16.0982 10.4021 16.1301 10.8294 16.1461 11.1249C16.162 11.4204 16.1701 11.6959 16.1701 11.9514C16.1701 12.3028 16.1581 12.6342 16.1341 12.9457C16.1102 13.2572 16.0742 13.6525 16.0263 14.1316ZM15.7867 8.4056H19.3805C18.8534 7.30352 18.1307 6.3851 17.2122 5.65039C16.2938 4.91567 15.2357 4.39657 14.0378 4.0931C14.437 4.68407 14.7765 5.32298 15.056 6.00977C15.3355 6.69656 15.5791 7.49518 15.7867 8.4056ZM9.7013 8.4056H14.3492C14.1735 7.55906 13.8781 6.7405 13.4628 5.94987C13.0475 5.15925 12.5603 4.46046 12.0013 3.85352C11.4902 4.28477 11.0589 4.85178 10.7076 5.55456C10.3562 6.25735 10.0208 7.20768 9.7013 8.4056ZM4.62214 8.4056H8.23984C8.41555 7.5431 8.63913 6.77246 8.91068 6.09362C9.18222 5.41478 9.52559 4.75594 9.94089 4.11706C8.74297 4.42053 7.6968 4.93164 6.80234 5.65039C5.90788 6.36914 5.18116 7.28756 4.62214 8.4056Z" fill="#98A2B3"/>
</svg>
