<svg width="24" height="24" viewBox="0 0 24 24" fill="none" xmlns="http://www.w3.org/2000/svg">
<path d="M4.33203 18.7079V17.2704H6.2487V9.98708C6.2487 8.64541 6.64401 7.44352 7.43464 6.38135C8.22526 5.31918 9.49805 4.49951 10.998 4.3806V2.41602L12.998 2.41624V4.38083C14.498 4.49974 15.7721 5.31918 16.5628 6.38135C17.3534 7.44352 17.7487 8.64541 17.7487 9.98708V17.2704H19.6654V18.7079H4.33203ZM11.9987 21.5829C11.4716 21.5829 11.0204 21.3952 10.6451 21.0199C10.2697 20.6446 10.082 20.1933 10.082 19.6662H13.9154C13.9154 20.1933 13.7277 20.6446 13.3523 21.0199C12.977 21.3952 12.5258 21.5829 11.9987 21.5829ZM7.6862 17.2704H16.3112V9.98708C16.3112 8.78916 15.8919 7.77093 15.0534 6.93239C14.2148 6.09385 13.1966 5.67458 11.9987 5.67458C10.8008 5.67458 9.78255 6.09385 8.94401 6.93239C8.10547 7.77093 7.6862 8.78916 7.6862 9.98708V17.2704Z" fill="#98A2B3"/>
</svg>
