<svg width="32" height="32" viewBox="0 0 32 32" fill="none" xmlns="http://www.w3.org/2000/svg">
<rect width="32" height="32" rx="16" fill="#E4E7EC"/>
<path d="M11.5547 20.8477L16.0547 16.5059C16.541 16.0195 16.916 15.6211 17.1797 15.3105C17.4492 14.9941 17.6543 14.6836 17.7949 14.3789C17.9355 14.0684 18.0059 13.7402 18.0059 13.3945C18.0059 13.0078 17.9092 12.668 17.7158 12.375C17.5283 12.082 17.2676 11.8564 16.9336 11.6982C16.6055 11.54 16.2363 11.4609 15.8262 11.4609C15.3926 11.4609 15.0117 11.5488 14.6836 11.7246C14.3613 11.8945 14.1123 12.1377 13.9365 12.4541C13.7666 12.7705 13.6816 13.1426 13.6816 13.5703H11.502C11.502 12.7793 11.6836 12.085 12.0469 11.4873C12.416 10.8838 12.9287 10.418 13.585 10.0898C14.2471 9.76172 15 9.59766 15.8438 9.59766C16.6992 9.59766 17.4551 9.75586 18.1113 10.0723C18.7734 10.3887 19.2861 10.8281 19.6494 11.3906C20.0186 11.9473 20.2031 12.5801 20.2031 13.2891C20.1973 13.7812 20.1006 14.2559 19.9131 14.7129C19.7256 15.1641 19.4033 15.668 18.9463 16.2246C18.4893 16.7812 17.8418 17.4551 17.0039 18.2461L14.7363 20.4961V20.584H20.3965V22.5H11.5547V20.8477Z" fill="#98A2B3"/>
</svg>
