<svg width="16" height="16" viewBox="0 0 16 16" fill="none" xmlns="http://www.w3.org/2000/svg">
<path d="M8 14.4688C6.20312 14.4688 4.67578 13.8369 3.41797 12.573C2.16016 11.3092 1.53125 9.77891 1.53125 7.98203H2.60938C2.60938 9.47944 3.13345 10.7552 4.18164 11.8094C5.22983 12.8635 6.50259 13.3906 8 13.3906C9.50172 13.3906 10.7756 12.8676 11.8216 11.8216C12.8676 10.7756 13.3906 9.50172 13.3906 8C13.3906 6.49828 12.8676 5.22444 11.8216 4.17841C10.7756 3.13237 9.50172 2.60938 8 2.60938C7.17344 2.60938 6.40078 2.79206 5.68203 3.15742C4.96328 3.5228 4.33438 4.01694 3.79531 4.63984H5.66406V5.71797H1.92656V1.98047H3.00469V3.88516C3.6396 3.14244 4.38961 2.56445 5.25473 2.15117C6.11975 1.73789 7.03483 1.53125 8 1.53125C8.89844 1.53125 9.73999 1.70195 10.5246 2.04336C11.3092 2.38477 11.992 2.84596 12.573 3.42695C13.154 4.00795 13.6152 4.69077 13.9566 5.47539C14.298 6.26001 14.4688 7.10156 14.4688 8C14.4688 8.89844 14.298 9.73999 13.9566 10.5246C13.6152 11.3092 13.154 11.992 12.573 12.573C11.992 13.154 11.3092 13.6152 10.5246 13.9566C9.73999 14.298 8.89844 14.4688 8 14.4688Z" fill="#98A2B3"/>
</svg>
