<svg width="24" height="25" viewBox="0 0 24 25" fill="none" xmlns="http://www.w3.org/2000/svg">
<path d="M12.0013 22.0827C10.6596 22.0827 9.4058 21.8311 8.23984 21.328C7.07389 20.8249 6.05964 20.1421 5.19714 19.2796C4.33464 18.4171 3.65581 17.3988 3.16068 16.2249C2.66554 15.0509 2.41797 13.7931 2.41797 12.4514C2.41797 11.1098 2.66554 9.85996 3.16068 8.70195C3.65581 7.54395 4.33464 6.53372 5.19714 5.67122C6.05964 4.80872 7.07389 4.1339 8.23984 3.64674C9.4058 3.15959 10.6596 2.91602 12.0013 2.91602C13.343 2.91602 14.5968 3.15959 15.7628 3.64674C16.9287 4.1339 17.943 4.80872 18.8055 5.67122C19.668 6.53372 20.3468 7.54395 20.8419 8.70195C21.3371 9.85996 21.5846 11.1098 21.5846 12.4514C21.5846 13.7931 21.3371 15.0509 20.8419 16.2249C20.3468 17.3988 19.668 18.4171 18.8055 19.2796C17.943 20.1421 16.9287 20.8249 15.7628 21.328C14.5968 21.8311 13.343 22.0827 12.0013 22.0827ZM12.0013 20.6931C12.5603 20.1181 13.0275 19.4592 13.4029 18.7165C13.7782 17.9738 14.0857 17.0913 14.3253 16.0691H9.7013C9.92493 17.0275 10.2244 17.89 10.5997 18.6566C10.9751 19.4233 11.4423 20.1021 12.0013 20.6931ZM9.96484 20.4056C9.56555 19.7986 9.22214 19.1438 8.93464 18.441C8.64714 17.7382 8.40755 16.9476 8.21589 16.0691H4.62214C5.22908 17.2032 5.93184 18.0936 6.73047 18.7405C7.5291 19.3874 8.60722 19.9424 9.96484 20.4056ZM14.0617 20.3816C15.2117 20.0143 16.2459 19.4632 17.1643 18.7285C18.0827 17.9938 18.8214 17.1074 19.3805 16.0691H15.8107C15.6031 16.9316 15.3594 17.7143 15.0799 18.4171C14.8004 19.1199 14.461 19.7747 14.0617 20.3816ZM4.14297 14.6316H7.95234C7.90443 14.2004 7.87649 13.8131 7.86849 13.4697C7.86049 13.1262 7.85651 12.7868 7.85651 12.4514C7.85651 12.0521 7.86451 11.6967 7.88047 11.3853C7.89643 11.0738 7.92839 10.7264 7.9763 10.3431H4.14297C4.03116 10.7264 3.95529 11.0699 3.91536 11.3733C3.87544 11.6768 3.85547 12.0361 3.85547 12.4514C3.85547 12.8667 3.87544 13.2381 3.91536 13.5655C3.95529 13.8929 4.03116 14.2483 4.14297 14.6316ZM9.43776 14.6316H14.5888C14.6527 14.1365 14.6926 13.7332 14.7086 13.4217C14.7245 13.1103 14.7326 12.7868 14.7326 12.4514C14.7326 12.132 14.7245 11.8245 14.7086 11.529C14.6926 11.2335 14.6527 10.8382 14.5888 10.3431H9.43776C9.37389 10.8382 9.33393 11.2335 9.31797 11.529C9.30201 11.8245 9.29401 12.132 9.29401 12.4514C9.29401 12.7868 9.30201 13.1103 9.31797 13.4217C9.33393 13.7332 9.37389 14.1365 9.43776 14.6316ZM16.0263 14.6316H19.8596C19.9714 14.2483 20.0473 13.8929 20.0872 13.5655C20.1272 13.2381 20.1471 12.8667 20.1471 12.4514C20.1471 12.0361 20.1272 11.6768 20.0872 11.3733C20.0473 11.0699 19.9714 10.7264 19.8596 10.3431H16.0503C16.0982 10.9021 16.1301 11.3294 16.1461 11.6249C16.162 11.9204 16.1701 12.1959 16.1701 12.4514C16.1701 12.8028 16.1581 13.1342 16.1341 13.4457C16.1102 13.7572 16.0742 14.1525 16.0263 14.6316ZM15.7867 8.9056H19.3805C18.8534 7.80352 18.1307 6.8851 17.2122 6.15039C16.2938 5.41567 15.2357 4.89657 14.0378 4.5931C14.437 5.18407 14.7765 5.82298 15.056 6.50977C15.3355 7.19656 15.5791 7.99518 15.7867 8.9056ZM9.7013 8.9056H14.3492C14.1735 8.05906 13.8781 7.2405 13.4628 6.44987C13.0475 5.65925 12.5603 4.96046 12.0013 4.35352C11.4902 4.78477 11.0589 5.35178 10.7076 6.05456C10.3562 6.75735 10.0208 7.70768 9.7013 8.9056ZM4.62214 8.9056H8.23984C8.41555 8.0431 8.63913 7.27246 8.91068 6.59362C9.18222 5.91478 9.52559 5.25594 9.94089 4.61706C8.74297 4.92053 7.6968 5.43164 6.80234 6.15039C5.90788 6.86914 5.18116 7.78756 4.62214 8.9056Z" fill="#0098FF"/>
</svg>
