<svg width="24" height="25" viewBox="0 0 24 25" fill="none" xmlns="http://www.w3.org/2000/svg">
<path d="M11.2812 8.78613V8.1153C10.5945 7.93959 10.0234 7.57231 9.56823 7.01346C9.11302 6.4546 8.88542 5.80763 8.88542 5.07259C8.88542 4.21233 9.18969 3.47816 9.79823 2.8701C10.4068 2.26204 11.1415 1.95801 12.0024 1.95801C12.8633 1.95801 13.5972 2.26204 14.2042 2.8701C14.8111 3.47816 15.1146 4.21233 15.1146 5.07259C15.1146 5.80763 14.887 6.4546 14.4318 7.01346C13.9766 7.57231 13.4055 7.93959 12.7188 8.1153V8.78613L20.625 13.3382V17.4111L12.7188 21.9632C12.4899 22.091 12.249 22.1549 11.9962 22.1549C11.7432 22.1549 11.5049 22.091 11.2812 21.9632L3.375 17.4111V13.3382L11.2812 8.78613ZM4.8125 14.5841V16.5726L12 20.7174L19.1875 16.5726V14.5601L12 18.7288L4.8125 14.5841ZM11.9971 6.74967C12.4623 6.74967 12.8585 6.5869 13.1859 6.2614C13.5134 5.93591 13.6771 5.54058 13.6771 5.07547C13.6771 4.61035 13.5143 4.21408 13.1888 3.88665C12.8633 3.55922 12.468 3.39551 12.0029 3.39551C11.5377 3.39551 11.1415 3.55827 10.8141 3.88378C10.4866 4.20929 10.3229 4.6046 10.3229 5.06972C10.3229 5.53483 10.4857 5.93111 10.8112 6.25853C11.1367 6.58594 11.532 6.74967 11.9971 6.74967ZM5.89062 13.5538L12 17.0757L18.0854 13.5299L12.7188 10.4393V13.9372H11.2812V10.4393L5.89062 13.5538Z" fill="#0098FF"/>
</svg>
