<svg width="78" height="24" viewBox="0 0 78 24" fill="none" xmlns="http://www.w3.org/2000/svg">
<path d="M54.3995 0.416744L50.6094 2.60498L52.7976 6.39512L56.5877 4.20688L54.3995 0.416744Z" fill="#0098FF"/>
<path d="M19.7745 0.404538L15.9844 2.59277L18.1726 6.38291L21.9627 4.19467L19.7745 0.404538Z" fill="#00E7BA"/>
<path d="M65.2227 12.1302C66.0933 12.1302 66.7521 12.4126 67.1521 12.9773C67.5521 13.4949 67.7639 14.1773 67.7639 15.0243V23.2832H72.0227V14.3655C72.0227 13.0949 71.7874 11.989 71.3168 11.0949C70.8698 10.2008 70.2345 9.49492 69.4345 9.02433C68.6345 8.55375 67.7168 8.29492 66.658 8.29492C65.5992 8.29492 65.2462 8.38904 64.6109 8.6008C63.9992 8.78904 63.4345 9.07139 62.9404 9.4008L62.4698 9.73022V8.69492H58.2109V23.2596H62.4698V15.0008C62.4698 14.0832 62.7051 13.3773 63.1992 12.8596C63.6933 12.342 64.3756 12.0832 65.2227 12.0832V12.1302Z" fill="#475467"/>
<path d="M76.8955 2.53027H72.6602V6.50674H74.2781L73.8075 9.51851H76.4013L76.8955 6.31851V2.53027Z" fill="#475467"/>
<path d="M55.7393 8.71875H51.4805V23.2835H55.7393V8.71875Z" fill="url(#paint0_linear_178_82)"/>
<path d="M43.1993 20.2952C43.9051 21.3069 44.611 22.3187 45.3169 23.3069H50.3522C49.5051 22.1069 48.6346 20.9069 47.7404 19.7069C46.7757 18.3422 45.7875 16.954 44.7993 15.5893L44.6581 15.401L44.7993 15.2363C45.7169 14.0834 46.6581 12.9305 47.5757 11.754C48.3993 10.7658 49.1993 9.75399 49.9993 8.74222H45.1051C44.4463 9.58928 43.764 10.4599 43.0816 11.354L40.4463 14.7187V2.4834H36.1875V23.3069H40.4463V16.3658L40.9875 17.1422C41.7169 18.1775 42.4463 19.2363 43.1757 20.3187L43.1993 20.2952Z" fill="#475467"/>
<path d="M23.6479 12.2245C23.0597 13.2833 22.7773 14.5539 22.7773 15.9892C22.7773 17.4245 23.0832 18.695 23.6479 19.7774C24.2362 20.8362 25.0362 21.7068 26.0715 22.3656C27.1068 23.0245 28.3303 23.4245 29.695 23.5421C31.0126 23.6833 32.4479 23.5421 33.9538 23.1186V19.2833C32.942 19.7068 31.9303 19.895 30.9891 19.895C29.8832 19.848 28.9656 19.5186 28.2597 18.8833C27.5303 18.2245 27.1538 17.2362 27.1538 15.9892C27.1538 14.7421 27.5303 13.7774 28.2597 13.1186C28.9656 12.4597 29.8832 12.1303 30.9891 12.0833C31.9303 12.0597 32.942 12.248 33.9538 12.695V8.85975C32.8244 8.53034 31.7421 8.38916 30.7303 8.38916C29.7185 8.38916 30.0479 8.38916 29.7185 8.43622C28.3303 8.5774 27.1303 8.9774 26.095 9.61269C25.0597 10.2715 24.2597 11.1421 23.6715 12.2245H23.6479Z" fill="#475467"/>
<path d="M21.126 8.71875H16.8672V23.2835H21.126V8.71875Z" fill="url(#paint1_linear_178_82)"/>
<path d="M14.3761 14.0365C14.9643 13.0483 15.2702 11.8953 15.2702 10.5777C15.2702 9.26003 14.9643 8.08356 14.3761 7.09532C13.7878 6.10709 12.9408 5.33062 11.8819 4.78944C10.8231 4.22474 9.529 3.94238 8.0937 3.94238H1.10547V23.3071H5.64665V17.1424H8.4937C9.78782 17.1424 10.9643 16.86 11.9525 16.3189C12.9643 15.7777 13.7878 15.0012 14.3525 14.013L14.3761 14.0365ZM10.0702 12.4836C9.64664 13.0012 9.08194 13.26 8.37606 13.26H5.64665V7.94238H8.07017C8.8937 7.94238 9.55253 8.20121 10.0231 8.71885C10.4937 9.21297 10.7055 9.87179 10.7055 10.6247C10.7055 11.3777 10.4937 11.9894 10.0466 12.4836H10.0702Z" fill="#475467"/>
<defs>
<linearGradient id="paint0_linear_178_82" x1="53.6099" y1="8.71875" x2="53.6099" y2="23.2835" gradientUnits="userSpaceOnUse">
<stop stop-color="#0098FF"/>
<stop offset="1" stop-color="#344054"/>
</linearGradient>
<linearGradient id="paint1_linear_178_82" x1="18.9966" y1="8.71875" x2="18.9966" y2="23.2835" gradientUnits="userSpaceOnUse">
<stop stop-color="#00E7BA"/>
<stop offset="1" stop-color="#344054"/>
</linearGradient>
</defs>
</svg>
